<!-- icon666.com - MILLIONS vector ICONS FREE --><svg id="Capa_1" enable-background="new 0 0 511.997 511.997" viewBox="0 0 511.997 511.997" xmlns="http://www.w3.org/2000/svg"><path d="m487.048 131.365h-473.044c-8.756 0-15.364 8.009-13.765 16.618l13.459 10.849 101.298-.167-74.934 205.349c2.193 11.809 12.935 16.618 21.185 16.618h324.131c27.944 0 52.905-17.478 62.463-43.737l62.631-172.078c5.917-16.258-6.122-33.452-23.424-33.452z" fill="#ffe07d"></path><path d="m493.855 151.526c-.927-1.324-3.043-3.543-6.806-3.543h-486.809l1.206 6.431c1.097 5.905 6.248 10.187 12.254 10.187h68.3c4.428 0 8.291 3.345 8.572 7.764.308 4.84-3.518 8.854-8.291 8.854h-61.183c-7.795 0-13.677 7.075-12.254 14.739 1.097 5.904 6.248 10.187 12.254 10.187h46.361c4.428 0 8.291 3.345 8.572 7.764.308 4.84-3.518 8.854-8.291 8.854h-38.924c-7.795 0-13.677 7.075-12.254 14.739 1.097 5.904 6.248 10.187 12.254 10.187h28.257c4.428 0 8.291 3.345 8.572 7.764.308 4.84-3.518 8.854-8.291 8.854h-20.821c-7.795 0-13.677 7.075-12.254 14.74l15.783 84.967h345.316c20.958 0 39.679-13.108 46.847-32.803l62.631-172.077c1.287-3.536-.075-6.285-1.001-7.608z" fill="#ffd064"></path><g fill="#fff"><path d="m190.352 156.292h-58.162c-8.057 0-16.285 5.923-19.141 13.778l-43.368 119.164 7.315 5.764 10.363-5.764 9.072-24.927h44.035c4.593 0 8.309-3.716 8.309-8.309s-3.716-8.309-8.309-8.309h-37.987l26.181-71.94c.536-1.461 2.588-2.84 3.53-2.84h58.162c4.593 0 8.309-3.716 8.309-8.309s-3.716-8.308-8.309-8.308z"></path><path d="m260.897 161.209c-2.645-3.173-6.556-4.917-11.003-4.917h-2.75c-7.1 0-14.313 4.479-17.957 11.149l-66.47 121.794 11.781 7.014 68.07-7.014 21.187-116.316c.801-4.375-.213-8.537-2.858-11.71zm-35.215 128.025-28.852 2.264-15.176-2.264 62.122-113.825c.73-1.347 2.264-2.264 3.083-2.459z"></path><path d="m372.393 168.293c-5.42-7.741-14.005-12.001-24.172-12.001-21.9 0-46.324 19.969-55.598 45.455-11.563 31.759-1.379 47.346 17.462 60.978 9.965 7.221 16.582 13.335 15.376 26.509l1.161 1.806c5.042 1.322 5.087 1.623 10.125 2.958l5.335-4.764c1.131-18.421-8.13-29.738-22.261-39.962-13.202-9.567-20.569-17.153-11.587-41.845 6.816-18.711 25.121-34.518 39.986-34.518 4.722 0 8.276 1.655 10.557 4.909 3.716 5.315 3.838 14.257.316 23.929-1.574 4.309.649 9.08 4.966 10.646 4.292 1.582 9.08-.649 10.646-4.966 5.453-14.979 4.609-29.243-2.312-39.134z"></path><path d="m472.854 156.292h-66.471c-4.593 0-8.309 3.716-8.309 8.309s3.716 8.309 8.309 8.309h21.372l-42.336 116.324 4.244 10.598 13.435-10.598 42.336-116.324h27.42c4.593 0 8.309-3.716 8.309-8.309s-3.716-8.309-8.309-8.309z"></path></g><path d="m69.681 289.234-20.134 55.322c-1.574 4.309.649 9.08 4.966 10.646.933.341 1.899.503 2.84.503 3.392 0 6.581-2.093 7.806-5.469l22.201-61.002z" fill="#fff5d7"></path><path d="m325.46 289.234c-.392 4.279-1.586 9.282-3.789 15.336-6.808 18.711-25.113 34.518-39.978 34.518-4.722 0-8.276-1.655-10.557-4.909-3.724-5.307-3.838-14.257-.325-23.929 1.574-4.309-.657-9.08-4.966-10.646-4.325-1.566-9.08.657-10.646 4.966-5.453 14.987-4.609 29.251 2.321 39.143 5.42 7.733 14.005 11.993 24.172 11.993 21.9 0 46.324-19.969 55.59-45.455 2.892-7.943 4.423-14.874 4.799-21.016h-16.621z" fill="#fff5d7"></path><path d="m385.419 289.234-20.134 55.322c-1.574 4.309.649 9.08 4.966 10.646.933.341 1.899.503 2.84.503 3.392 0 6.581-2.093 7.806-5.469l22.201-61.002z" fill="#fff5d7"></path><path d="m162.716 289.234-29.568 54.178c-2.199 4.033-.714 9.08 3.311 11.279 1.266.69 2.629 1.014 3.976 1.014 2.945 0 5.793-1.566 7.303-4.325l24.848-45.528h50.071l-7.296 40.06c-.828 4.511 2.166 8.836 6.686 9.656 4.503.884 8.836-2.158 9.656-6.686l10.864-59.647h-79.851z" fill="#fff5d7"></path></svg>