<!-- icon666.com - MILLIONS vector ICONS FREE --><svg version="1.1" id="Layer_1" xmlns="http://www.w3.org/2000/svg" xmlns:xlink="http://www.w3.org/1999/xlink" x="0px" y="0px" viewBox="0 0 420 420" style="enable-background:new 0 0 420 420;" xml:space="preserve"><g id="XMLID_591_"><rect id="XMLID_592_" x="160" style="fill:#F1CB30;" width="100" height="60"></rect><rect id="XMLID_593_" x="160" style="fill:#E0BD2C;" width="40" height="60"></rect><path id="XMLID_594_" style="fill:#787681;" d="M120,330v70c0,11.046-8.954,20-20,20H80c-11.046,0-20-8.954-20-20v-70H120z"></path><path id="XMLID_595_" style="fill:#787681;" d="M360,330v70c0,11.046-8.954,20-20,20h-20c-11.046,0-20-8.954-20-20v-70H360z"></path><path id="XMLID_596_" style="fill:#57565C;" d="M60,330v70c0,11.046,8.954,20,20,20h10v-90H60z"></path><path id="XMLID_597_" style="fill:#57565C;" d="M300,330v70c0,11.046,8.954,20,20,20h10v-90H300z"></path><polyline id="XMLID_598_" style="fill:#98C8ED;" points="40,170 80,70 340,70 380,170 "></polyline><polygon id="XMLID_599_" style="fill:#D1E3FA;" points="316.569,70 203.431,70 103.431,170 216.569,170 "></polygon><g id="XMLID_600_"><polygon id="XMLID_601_" style="fill:#57565C;" points="366.073,175.571 329.845,85 90.155,85 53.927,175.571 26.073,164.429 69.845,55 350.155,55 393.927,164.429 "></polygon></g><path id="XMLID_602_" style="fill:#F1CB30;" d="M380,340c22.092,0,40-17.909,40-40V200c0-22.091-17.908-40-40-40H40 c-22.091,0-40,17.909-40,40v100c0,22.091,17.909,40,40,40H380z"></path><circle id="XMLID_605_" style="fill:#FFFFFF;" cx="90" cy="250" r="30"></circle><circle id="XMLID_608_" style="fill:#FFFFFF;" cx="330" cy="250" r="30"></circle><g id="XMLID_609_"><rect id="XMLID_610_" x="150" y="235" style="fill:#57565C;" width="120" height="30"></rect></g><path id="XMLID_611_" style="fill:#E0BD2C;" d="M40,160L40,160c-22.092,0-40,17.909-40,40v100c0,22.091,17.909,40,40,40l0,0V160z"></path><path id="XMLID_612_" style="fill:#F5DC60;" d="M380,160v180c22.092,0,40-17.909,40-40V200C420,177.909,402.092,160,380,160z"></path></g></svg>