<!-- icon666.com - MILLIONS vector ICONS FREE --><svg version="1.1" id="Layer_1" xmlns="http://www.w3.org/2000/svg" xmlns:xlink="http://www.w3.org/1999/xlink" x="0px" y="0px" viewBox="0 0 512 512" style="enable-background:new 0 0 512 512;" xml:space="preserve"><g><path style="fill:#F0C419;" d="M300.138,0c0,0-58.854,70.621-194.207,70.621v168.474c0,5.429,0.15,10.858,0.441,16.26 l79.007,141.886h-34.136c16.508,26.077,37.261,49.54,62.067,69.032c24.488,19.244,53.354,35.796,86.828,45.727 c33.474-9.931,62.34-26.483,86.828-45.727c69.173-54.36,107.379-139.202,107.379-227.178V70.621 C358.991,70.621,300.138,0,300.138,0"></path><path style="fill:#F29C1F;" d="M300.138,69.125c-29.67,20.162-75.997,42.858-141.241,51.182v21.398 c13.065,2.322,24.973,19.553,27.065,34.613c2.242,16.172,3.196,43.14-0.583,62.023v17.655H256c9.754,0,17.655,7.91,17.655,17.655 c0,9.754-7.901,17.655-17.655,17.655c9.754,0,17.655,7.91,17.655,17.655c0,9.754-7.901,17.655-17.655,17.655 c9.754,0,17.655,7.91,17.655,17.655c0,9.754-7.901,17.655-17.655,17.655c9.754,0,17.655,7.91,17.655,17.655 c0,9.754-7.901,17.655-17.655,17.655h-38.78c8.757,9.993,18.379,19.191,28.822,27.392c17.214,13.533,35.354,24.064,54.095,31.409 c18.741-7.345,36.882-17.876,54.104-31.409c54.563-42.876,87.137-112.243,87.137-185.538V120.308 C376.135,111.983,329.807,89.288,300.138,69.125"></path><path style="fill:#FDD7AD;" d="M185.379,397.241H256c9.754,0,17.655-7.901,17.655-17.655l0,0c0-9.754-7.901-17.655-17.655-17.655 h-70.621H256c9.754,0,17.655-7.901,17.655-17.655l0,0c0-9.754-7.901-17.655-17.655-17.655h-70.621H256 c9.754,0,17.655-7.901,17.655-17.655l0,0c0-9.754-7.901-17.655-17.655-17.655h-70.621H256c9.754,0,17.655-7.901,17.655-17.655l0,0 c0-9.754-7.901-17.655-17.655-17.655h-70.621v-17.655c3.778-18.882,2.825-45.85,0.583-62.023 c-2.251-16.172-15.793-35.081-29.961-35.081h-1.201c-12.076,0-16.402,14.248-16.402,32.159c0,87.093-40.095,83.279-40.095,83.279 H88.276v140.562H185.379z"></path><g><path style="fill:#F09372;" d="M247.172,300.138h-70.621c-4.873,0-8.828-3.955-8.828-8.828c0-4.873,3.955-8.828,8.828-8.828 h70.621c4.873,0,8.828,3.955,8.828,8.828C256,296.183,252.045,300.138,247.172,300.138"></path><path style="fill:#F09372;" d="M247.172,335.448h-70.621c-4.873,0-8.828-3.955-8.828-8.828c0-4.873,3.955-8.828,8.828-8.828 h70.621c4.873,0,8.828,3.955,8.828,8.828C256,331.493,252.045,335.448,247.172,335.448"></path><path style="fill:#F09372;" d="M247.172,370.759h-70.621c-4.873,0-8.828-3.955-8.828-8.828s3.955-8.828,8.828-8.828h70.621 c4.873,0,8.828,3.955,8.828,8.828S252.045,370.759,247.172,370.759"></path></g><path style="fill:#4482C3;" d="M88.276,423.724H26.483c-4.873,0-8.828-3.955-8.828-8.828V238.345c0-4.873,3.955-8.828,8.828-8.828 h61.793c4.873,0,8.828,3.955,8.828,8.828v176.552C97.103,419.769,93.149,423.724,88.276,423.724"></path></g></svg>